:FULLY-SPECIFIED
:FORCE-ALL-JOINTS-BE-3DOF
:DEGREES
1
root -2.95645 16.8291 -36.2757 3.79203 -0.409345 -2.77144
lfemur -18.1857 -3.85478 -7.37129
ltibia 37.6337 0 0
lfoot -17.8071 6.78532 0
ltoes -26.1578 0 0
rfemur -19.1521 0.15077 14.7318
rtibia 40.3652 0 0
rfoot -23.1652 -2.86285 0
rtoes -21.0274 0 0
lowerback 7.02591 2.55716 -1.97249
upperback -3.14202 3.31583 1.27229
thorax -7.43554 1.75645 1.99661
lowerneck -4.68188 -4.04088 -6.84108
upperneck 4.69893 -5.30737 6.47589
head 2.76948 -2.5844 3.14763
lclavicle 1.91563e-15 -9.24349e-15 0
lhumerus -27.0689 -5.33108 89.6453
lradius 25.7364 0 0
lwrist -30.6252 0 0
lhand -28.8405 29.9909 0
lfingers 7.12502 0 0
lthumb -2.19771 59.9594 0
rclavicle 1.91563e-15 -9.24349e-15 0
rhumerus -32.8355 4.71181 -81.727
rradius 32.9783 0 0
rwrist 3.84135 0 0
rhand -24.1523 -25.0894 0
rfingers 7.12502 0 0
rthumb 2.33029 -55.0564 0
2
root -2.95726 16.8257 -36.2792 3.75457 -0.417409 -2.76544
lfemur -18.1644 -3.76309 -7.3887
ltibia 37.6607 -0 0
lfoot -17.8213 6.74216 0.000385344
ltoes -25.984 0 0
rfemur -19.145 0.0988241 14.7259
rtibia 40.4087 -0 0
rfoot -23.1665 -2.79422 -6.45017e-05
rtoes -20.8339 0 0
lowerback 7.08857 2.55385 -1.97336
upperback -3.13279 3.31033 1.27325
thorax -7.46175 1.75379 1.99687
lowerneck -4.67207 -4.0365 -6.83978
upperneck 4.6925 -5.30192 6.47611
head 2.76502 -2.58182 3.1478
lclavicle 6.48147e-15 -9.15652e-15 0
lhumerus -27.0609 -5.32791 89.6553
lradius 25.7263 -0 0
lwrist -30.6157 0 0
lhand -28.8418 29.9863 3.81804e-06
lfingers 7.12502 -0 0
lthumb -2.19896 59.9548 3.69823e-06
rclavicle 6.48147e-15 -9.15652e-15 0
rhumerus -32.8274 4.68651 -81.7102
rradius 32.9437 -0 0
rwrist 3.83191 0 0
rhand -24.1278 -25.109 -0.000315678
rfingers 7.12502 -0 0
rthumb 2.354 -55.0756 -0.000299483
3
root -2.95806 16.8223 -36.2826 3.7117 -0.427054 -2.75872
lfemur -18.1388 -3.66082 -7.40825
ltibia 37.6892 -0 0
lfoot -17.8363 6.69523 0.000724615
ltoes -25.7905 0 0
rfemur -19.136 0.0409093 14.7195
rtibia 40.4563 -0 0
rfoot -23.1671 -2.7162 -0.000101795
rtoes -20.6154 0 0
lowerback 7.16044 2.55024 -1.97461
upperback -3.12205 3.30425 1.27439
thorax -7.49168 1.75087 1.99732
lowerneck -4.66166 -4.03148 -6.83834
upperneck 4.68501 -5.29563 6.4766
head 2.76004 -2.57882 3.14808
lclavicle 6.48147e-15 -9.15652e-15 0
lhumerus -27.0518 -5.32464 89.6669
lradius 25.7285 -0 0
lwrist -30.6047 0 0
lhand -28.8433 29.9809 8.14687e-06
lfingers 7.12502 -0 0
lthumb -2.20042 59.9494 7.89122e-06
rclavicle 6.48147e-15 -9.15652e-15 0
rhumerus -32.8181 4.65766 -81.6912
rradius 32.9044 -0 0
rwrist 3.82155 0 0
rhand -24.101 -25.131 -0.000645343
rfingers 7.12502 -0 0
rthumb 2.37983 -55.0973 -0.000612913
4
root -2.95887 16.8189 -36.2861 3.6637 -0.43818 -2.75132
lfemur -18.1091 -3.54847 -7.4298
ltibia 37.7192 -0 0
lfoot -17.8521 6.64467 0.00101971
ltoes -25.5781 0 0
rfemur -19.1252 -0.022691 14.7126
rtibia 40.5079 -0 0
rfoot -23.1669 -2.62928 -0.000115589
rtoes -20.3731 0 0
lowerback 7.24103 2.54635 -1.97621
upperback -3.10988 3.29763 1.27572
thorax -7.52513 1.74769 1.99796
lowerneck -4.65066 -4.02586 -6.83677
upperneck 4.67651 -5.28855 6.47734
head 2.75454 -2.57543 3.14846
lclavicle 6.48147e-15 -9.15652e-15 0
lhumerus -27.0417 -5.32126 89.6801
lradius 25.7306 -0 0
lwrist -30.5923 0 0
lhand -28.845 29.9747 1.28896e-05
lfingers 7.12502 -0 0
lthumb -2.20207 59.9432 1.24851e-05
rclavicle 6.48147e-15 -9.15652e-15 0
rhumerus -32.8078 4.62544 -81.6701
rradius 32.8607 -0 0
rwrist 3.81031 0 0
rhand -24.0721 -25.1553 -0.000985438
rfingers 7.12502 -0 0
rthumb 2.40771 -55.1212 -0.00093685
5
root -2.95967 16.8155 -36.2895 3.61087 -0.450688 -2.74327
lfemur -18.0757 -3.42655 -7.45322
ltibia 37.7505 -0 0
lfoot -17.8686 6.59063 0.00127246
ltoes -25.3477 0 0
rfemur -19.1126 -0.0916931 14.7053
rtibia 40.5632 -0 0
rfoot -23.1661 -2.53395 -0.000109733
rtoes -20.1083 0 0
lowerback 7.32981 2.54219 -1.97815
upperback -3.09638 3.29048 1.27721
thorax -7.56189 1.74427 1.99876
lowerneck -4.63908 -4.01968 -6.83508
upperneck 4.66706 -5.28073 6.47831
head 2.74857 -2.57167 3.14893
lclavicle 6.48147e-15 -9.15652e-15 0
lhumerus -27.0306 -5.31776 89.6947
lradius 25.7324 -0 0
lwrist -30.5786 0 0
lhand -28.8469 29.9678 1.79464e-05
lfingers 7.12502 -0 0
lthumb -2.20392 59.9363 1.73833e-05
rclavicle 6.48147e-15 -9.15652e-15 0
rhumerus -32.7964 4.59004 -81.647
rradius 32.8128 -0 0
rwrist 3.79823 0 0
rhand -24.0412 -25.1818 -0.00133234
rfingers 7.12502 -0 0
rthumb 2.43756 -55.1472 -0.00126778
6
root -2.96048 16.8121 -36.293 3.55351 -0.464479 -2.73459
lfemur -18.0389 -3.29554 -7.47839
ltibia 37.7833 -0 0
lfoot -17.8858 6.53323 0.00148466
ltoes -25.1004 0 0
rfemur -19.0986 -0.165814 14.6974
rtibia 40.622 -0 0
rfoot -23.1647 -2.43071 -8.81333e-05
rtoes -19.8223 0 0
lowerback 7.42629 2.53777 -1.98039
upperback -3.08162 3.28283 1.27885
thorax -7.60177 1.74062 1.99972
lowerneck -4.62693 -4.01296 -6.83327
upperneck 4.65673 -5.27222 6.47949
head 2.74215 -2.56757 3.14948
lclavicle 6.48147e-15 -9.15652e-15 0
lhumerus -27.0185 -5.31416 89.7108
lradius 25.7341 -0 0
lwrist -30.5637 0 0
lhand -28.849 29.9603 2.32162e-05
lfingers 7.12502 -0 0
lthumb -2.20593 59.9287 2.24877e-05
rclavicle 6.48147e-15 -9.15652e-15 0
rhumerus -32.7842 4.55166 -81.6221
rradius 32.761 -0 0
rwrist 3.78536 0 0
rhand -24.0084 -25.2103 -0.00168238
rfingers 7.12502 -0 0
rthumb 2.4693 -55.1753 -0.00160218
7
root -2.96129 16.8086 -36.2964 3.49191 -0.479455 -2.72531
lfemur -17.9988 -3.15596 -7.50518
ltibia 37.8175 -0 0
lfoot -17.9038 6.47263 0.00165807
ltoes -24.837 0 0
rfemur -19.083 -0.244769 14.6891
rtibia 40.6844 -0 0
rfoot -23.1629 -2.32006 -5.46794e-05
rtoes -19.5163 0 0
lowerback 7.52997 2.53311 -1.98291
upperback -3.06571 3.27472 1.28064
thorax -7.64456 1.73675 2.00083
lowerneck -4.61423 -4.00575 -6.83135
upperneck 4.64558 -5.26305 6.48085
head 2.73529 -2.56314 3.15011
lclavicle 6.48147e-15 -9.15652e-15 0
lhumerus -27.0056 -5.31043 89.7281
lradius 25.7593 -0 0
lwrist -30.5476 0 0
lhand -28.8513 29.9521 2.85982e-05
lfingers 7.12502 -0 0
lthumb -2.20811 59.9205 2.77008e-05
rclavicle 6.48147e-15 -9.15652e-15 0
rhumerus -32.771 4.51048 -81.5955
rradius 32.7054 -0 0
rwrist 3.77172 0 0
rhand -23.9736 -25.2408 -0.00203191
rfingers 7.12502 -0 0
rthumb 2.50284 -55.2053 -0.0019365
8
root -2.96209 16.8052 -36.2999 3.42636 -0.495516 -2.71548
lfemur -17.9558 -3.00829 -7.53346
ltibia 37.8531 -0 0
lfoot -17.9225 6.40895 0.00179441
ltoes -24.5585 0 0
rfemur -19.0662 -0.328275 14.6803
rtibia 40.75 -0 0
rfoot -23.1605 -2.20249 -1.31759e-05
rtoes -19.1917 0 0
lowerback 7.64033 2.52822 -1.98568
upperback -3.04871 3.26615 1.28255
thorax -7.69007 1.73267 2.00205
lowerneck -4.60098 -3.99808 -6.82932
upperneck 4.63366 -5.25329 6.48238
head 2.72804 -2.55843 3.15081
lclavicle 6.48147e-15 -9.15652e-15 0
lhumerus -26.9919 -5.30659 89.7466
lradius 25.7565 -0 0
lwrist -30.5305 0 0
lhand -28.8537 29.9434 3.39931e-05
lfingers 7.12502 -0 0
lthumb -2.21043 59.9118 3.29264e-05
rclavicle 6.48147e-15 -9.15652e-15 0
rhumerus -32.7571 4.46668 -81.5672
rradius 32.6464 -0 0
rwrist 3.75735 0 0
rhand -23.9371 -25.2731 -0.00237732
rfingers 7.12502 -0 0
rthumb 2.53811 -55.2371 -0.00226724
9
root -2.9629 16.8018 -36.3033 3.35716 -0.512564 -2.70512
lfemur -17.9102 -2.85304 -7.56311
ltibia 37.8901 -0 0
lfoot -17.9419 6.34233 0.00189541
ltoes -24.2657 0 0
rfemur -19.0482 -0.416049 14.6711
rtibia 40.8187 -0 0
rfoot -23.1579 -2.07851 3.27211e-05
rtoes -18.8498 0 0
lowerback 7.75688 2.52311 -1.98868
upperback -3.03073 3.25716 1.28458
thorax -7.73809 1.7284 2.00339
lowerneck -4.5872 -3.98998 -6.82719
upperneck 4.62105 -5.24297 6.48404
head 2.72041 -2.55343 3.15157
lclavicle 6.48147e-15 -9.15652e-15 0
lhumerus -26.9774 -5.30262 89.7662
lradius 25.7537 -0 0
lwrist -30.5123 0 0
lhand -28.8562 29.9341 3.93047e-05
lfingers 7.12502 -0 0
lthumb -2.21289 59.9025 3.80713e-05
rclavicle 6.48147e-15 -9.15652e-15 0
rhumerus -32.7424 4.42047 -81.5375
rradius 32.5842 -0 0
rwrist 3.74229 0 0
rhand -23.8989 -25.307 -0.00271505
rfingers 7.12502 -0 0
rthumb 2.57502 -55.2705 -0.00259098
10
root -2.9637 16.7984 -36.3068 3.28459 -0.530498 -2.69426
lfemur -17.8623 -2.6907 -7.594
ltibia 37.9285 -0 0
lfoot -17.9621 6.27292 0.00196277
ltoes -23.9598 0 0
rfemur -19.0292 -0.507808 14.6615
rtibia 40.8903 -0 0
rfoot -23.1549 -1.9486 7.95612e-05
rtoes -18.4918 0 0
lowerback 7.87911 2.51778 -1.99188
upperback -3.01184 3.24778 1.28672
thorax -7.78844 1.72394 2.00483
lowerneck -4.57289 -3.98148 -6.82496
upperneck 4.60781 -5.23213 6.48583
head 2.71243 -2.54819 3.15237
lclavicle 6.48147e-15 -9.15652e-15 0
lhumerus -26.9623 -5.29853 89.7868
lradius 25.7509 -0 0
lwrist -30.4933 0 0
lhand -28.8589 29.9244 4.4441e-05
lfingers 7.12502 -0 0
lthumb -2.21548 59.8927 4.30465e-05
rclavicle 6.48147e-15 -9.15652e-15 0
rhumerus -32.727 4.37202 -81.5063
rradius 32.519 -0 0
rwrist 3.72658 0 0
rhand -23.859 -25.3426 -0.00304166
rfingers 7.12502 -0 0
rthumb 2.61349 -55.3056 -0.00290438
11
root -2.96451 16.795 -36.3102 3.20896 -0.549222 -2.68293
lfemur -17.8123 -2.52178 -7.626
ltibia 37.9682 -0 0
lfoot -17.9829 6.20085 0.00199821
ltoes -23.6415 0 0
rfemur -19.0092 -0.603266 14.6515
rtibia 40.9648 -0 0
rfoot -23.1516 -1.81326 0.00012415
rtoes -18.119 0 0
lowerback 8.00652 2.51227 -1.99525
upperback -2.99214 3.23802 1.28895
thorax -7.8409 1.7193 2.00634
lowerneck -4.55806 -3.97263 -6.82265
upperneck 4.59399 -5.22084 6.48772
head 2.70412 -2.54272 3.15322
lclavicle 6.48147e-15 -9.15652e-15 0
lhumerus -26.9465 -5.29431 89.8082
lradius 25.7481 -0 0
lwrist -30.4735 0 0
lhand -28.8617 29.9142 4.93153e-05
lfingers 7.12502 -0 0
lthumb -2.21817 59.8825 4.7768e-05
rclavicle 6.48147e-15 -9.15652e-15 0
rhumerus -32.7111 4.32153 -81.4739
rradius 32.4511 -0 0
rwrist 3.71026 0 0
rhand -23.8177 -25.3796 -0.00335384
rfingers 7.12502 -0 0
rthumb 2.65344 -55.342 -0.00320425
12
root -2.96532 16.7916 -36.3137 3.13055 -0.568636 -2.67117
lfemur -17.7605 -2.34677 -7.659
ltibia 38.0092 -0 0
lfoot -18.0044 6.12626 0.00200348
ltoes -23.3118 0 0
rfemur -18.9884 -0.702143 14.6411
rtibia 41.0418 -0 0
rfoot -23.1483 -1.673 0.000163597
rtoes -17.7327 0 0
lowerback 8.13861 2.50656 -1.99878
upperback -2.97171 3.22792 1.29126
thorax -7.89527 1.71451 2.00793
lowerneck -4.54273 -3.96345 -6.82025
upperneck 4.57965 -5.20913 6.48968
head 2.69552 -2.53705 3.15411
lclavicle 6.48147e-15 -9.15652e-15 0
lhumerus -26.9301 -5.28996 89.8305
lradius 25.7453 -0 0
lwrist -30.4529 0 0
lhand -28.8646 29.9037 5.38473e-05
lfingers 7.12502 -0 0
lthumb -2.22097 59.872 5.21579e-05
rclavicle 6.48147e-15 -9.15652e-15 0
rhumerus -32.6945 4.26919 -81.4403
rradius 32.3807 -0 0
rwrist 3.69336 0 0
rhand -23.7748 -25.4179 -0.00364843
rfingers 7.12502 -0 0
rthumb 2.6948 -55.3798 -0.00348752
13
root -2.96612 16.7882 -36.3171 3.04966 -0.588641 -2.65901
lfemur -17.7072 -2.16618 -7.69288
ltibia 38.0515 -0 0
lfoot -18.0267 6.04929 0.00198033
ltoes -22.9716 0 0
rfemur -18.967 -0.804153 14.6304
rtibia 41.1213 -0 0
rfoot -23.1448 -1.5283 0.00019535
rtoes -17.3341 0 0
lowerback 8.27486 2.50068 -2.00242
upperback -2.95063 3.21749 1.29364
thorax -7.95137 1.70956 2.00957
lowerneck -4.52691 -3.95399 -6.81776
upperneck 4.56487 -5.19704 6.4917
head 2.68664 -2.53121 3.15502
lclavicle 6.48147e-15 -9.15652e-15 0
lhumerus -26.9132 -5.28548 89.8535
lradius 25.7424 -0 0
lwrist -30.4317 0 0
lhand -28.8676 29.8928 5.79637e-05
lfingers 7.12502 -0 0
lthumb -2.22386 59.8611 5.61454e-05
rclavicle 6.48147e-15 -9.15652e-15 0
rhumerus -32.6775 4.21518 -81.4057
rradius 32.3082 -0 0
rwrist 3.67593 0 0
rhand -23.7307 -25.4575 -0.00392248
rfingers 7.12502 -0 0
rthumb 2.73747 -55.4187 -0.00375133
